<svg width="283" height="107" viewBox="0 0 283 107" fill="none" xmlns="http://www.w3.org/2000/svg">
<g clip-path="url(#clip0_691_7302)">
<path d="M114.974 47.0678H123.679L113.591 76.41H102.58L97.9108 59.4619L92.2614 76.41H81.3085L72.1427 47.0678H81.2509L87.1885 67.9936L93.9331 47.0678H102.35L108.172 68.1665L114.974 47.0678ZM154.299 47.1831V76.41H145.421L145.709 72.0288C143.596 75.3339 140.463 76.9864 136.313 76.9864C133.7 76.9864 131.471 76.3908 129.626 75.1994C127.781 74.008 126.378 72.3555 125.418 70.2418C124.457 68.1281 123.977 65.7069 123.977 62.9783C123.977 59.7117 124.649 56.8486 125.994 54.389C127.339 51.9294 129.145 50.027 131.413 48.682C133.68 47.2984 136.217 46.6067 139.022 46.6067C140.867 46.6067 142.5 46.991 143.922 47.7596C145.344 48.4898 146.439 49.4698 147.208 50.6996L147.958 47.1831H154.299ZM139.887 54.2737C137.773 54.2737 136.102 55.0615 134.872 56.6372C133.68 58.2129 133.085 60.2305 133.085 62.6901C133.085 64.8038 133.546 66.4371 134.468 67.59C135.429 68.743 136.716 69.3194 138.331 69.3194C140.291 69.3194 141.962 68.5124 143.346 66.8983C144.768 65.2842 145.479 63.1705 145.479 60.5572C145.479 58.5972 144.979 57.0599 143.98 55.9454C142.981 54.8309 141.616 54.2737 139.887 54.2737ZM161.11 87.9393V47.0678H169.988L169.7 51.5643C171.814 48.2592 174.945 46.6067 179.096 46.6067C181.71 46.6067 183.939 47.2024 185.783 48.3937C187.628 49.5851 189.031 51.2376 189.992 53.3513C190.952 55.465 191.433 57.8862 191.433 60.6148C191.433 63.8814 190.76 66.7446 189.415 69.2041C188.07 71.6637 186.263 73.5853 183.996 74.9688C181.729 76.3139 179.192 76.9864 176.386 76.9864C175.041 76.9864 173.811 76.7943 172.698 76.41C171.622 76.0257 170.661 75.4876 169.815 74.7959L169.93 76.41V87.9393H161.11ZM175.465 69.3194C177.579 69.3194 179.25 68.5316 180.48 66.9559C181.71 65.3418 182.324 63.305 182.324 60.8454C182.324 58.7701 181.844 57.156 180.883 56.0031C179.96 54.8501 178.692 54.2737 177.078 54.2737C175.118 54.2737 173.427 55.0807 172.006 56.6948C170.622 58.3089 169.93 60.4226 169.93 63.036C169.93 64.9575 170.43 66.4948 171.43 67.6477C172.428 68.7622 173.773 69.3194 175.465 69.3194ZM205.565 47.0678V76.41H196.746V47.0678H205.565ZM213.897 76.41V54.389H208.479V47.0678H213.897V46.1455C213.897 43.4937 214.474 41.2071 215.627 39.2855C216.78 37.3256 218.336 35.8267 220.296 34.7891C222.294 33.713 224.543 33.175 227.041 33.175C230 33.175 232.402 33.9052 234.247 35.3656C236.091 36.826 237.225 39.0742 237.647 42.1102L230.096 43.0326C229.98 42.264 229.635 41.6683 229.059 41.2455C228.482 40.8228 227.751 40.6114 226.868 40.6114C225.523 40.6114 224.466 41.0342 223.697 41.8796C222.966 42.6867 222.602 43.8588 222.602 45.3961V47.0678H230.5V54.389H222.717V76.41H213.897ZM243.549 88.5158C242.358 88.5158 241.09 88.4197 239.745 88.2276C238.4 88.0738 237.092 87.824 235.824 87.4782C234.594 87.1323 233.556 86.6711 232.712 86.0946L234.787 78.6006C236.132 79.2539 237.535 79.7727 238.995 80.157C240.494 80.5798 242.184 80.7911 244.068 80.7911C247.258 80.7911 249.526 80.0609 250.871 78.6006C252.254 77.1402 253.041 74.8535 253.233 71.7406L253.407 69.3771C252.216 71.4139 250.716 73.0088 248.91 74.1618C247.103 75.2763 245.067 75.8335 242.8 75.8335C239.341 75.8335 236.747 74.6806 235.018 72.3747C233.288 70.0688 232.443 66.8406 232.481 62.6901L232.596 47.0678H241.416L241.301 62.056C241.301 63.7854 241.608 65.1497 242.224 66.1489C242.838 67.1481 243.837 67.6477 245.221 67.6477C246.796 67.6477 248.16 67.0136 249.313 65.7454C250.466 64.4771 251.37 62.3634 252.024 59.4042C252.676 56.4066 253.041 52.2945 253.118 47.0678H261.65V70.703C261.65 76.8519 260.017 81.3484 256.75 84.1923C253.522 87.0746 249.121 88.5158 243.549 88.5158Z" fill="#154006"/>
<path d="M200.298 37.7509C198.749 32.7162 190.874 33.878 190.874 33.878C190.874 33.878 191.261 44.3346 198.62 42.7855C198.103 39.0418 196.038 37.6218 196.038 37.6218C199.653 37.6218 199.911 42.0109 199.911 42.0109V42.7855H202.493V42.5273C202.493 42.5273 202.493 37.4927 206.365 36.2017C206.365 36.2017 203.784 40.2036 203.784 42.7855C212.82 43.6892 212.82 31.1671 212.82 31.1671C212.82 31.1671 201.331 29.8761 200.298 37.7509Z" fill="#90CC61"/>
<path d="M200.298 37.7509C198.749 32.7162 190.874 33.878 190.874 33.878C190.874 33.878 191.261 44.3346 198.62 42.7855C198.103 39.0418 196.038 37.6218 196.038 37.6218C199.653 37.6218 199.911 42.0109 199.911 42.0109V42.7855H202.493V42.5273C202.493 42.5273 202.493 37.4927 206.365 36.2017C206.365 36.2017 203.784 40.2036 203.784 42.7855C212.82 43.6892 212.82 31.1671 212.82 31.1671C212.82 31.1671 201.331 29.8761 200.298 37.7509Z" fill="black" fill-opacity="0.2"/>
<path d="M45.4702 79.4882C38.1065 79.4882 32.4013 77.9144 28.3541 74.7665C24.307 71.6187 22.0424 67.3533 21.4802 61.2264L18.2576 61.7635L26.3143 50.2156L37.7974 58.5408L34.3405 58.9995C34.6777 61.9225 35.8301 64.171 37.7974 65.7448C39.7649 67.2624 42.4909 68.0214 45.976 68.0214C48.9552 68.0214 51.2317 67.5154 52.8055 66.5036C54.4357 65.4357 55.2507 63.946 55.2507 62.0349C55.2507 60.2925 54.4076 58.9152 52.7213 57.9035C51.0349 56.8917 48.2526 55.9361 44.3741 55.0367C40.2145 54.025 36.7014 52.8164 33.8346 51.4111C30.968 49.9497 28.8038 48.0668 27.3424 45.762C25.8809 43.4573 25.1502 40.5345 25.1502 36.9933C25.1502 33.2834 26.1057 29.995 28.0169 27.1284C29.928 24.2617 32.598 22.0414 36.0269 20.4675C39.4556 18.8374 42.8282 18.2573 47.325 18.2573C51.8219 18.2573 54.7813 18.9735 59.3467 22.0171C63.9122 25.0608 65.1325 29.6959 65.5235 31.2598C66.6034 35.5791 66.0606 37.862 66.0606 37.862L70.089 36.9933L64.1807 46.7738L53.707 40.2816L57.8645 39.2048C57.8645 34.5832 52.8055 29.4893 47.325 29.4893C44.8517 29.4893 42.8563 30.0795 41.3387 31.2598C39.8211 32.3841 39.0621 33.9297 39.0621 35.8972C39.0621 37.696 39.7928 39.1574 41.2544 40.2816C42.716 41.3495 45.3858 42.3613 49.2644 43.317C53.3677 44.3287 56.9088 45.481 59.888 46.7738C62.8672 48.0105 65.1438 49.7249 66.7176 51.9171C68.3477 54.1093 69.1627 57.0885 69.1627 60.8545C69.1627 64.5082 68.1791 67.7402 66.2117 70.5508C64.2443 73.3613 61.4618 75.5535 57.8645 77.1274C54.3233 78.7012 50.1918 79.4882 45.4702 79.4882Z" fill="#E38312"/>
</g>
<defs>
<clipPath id="clip0_691_7302">
<rect width="243.987" height="70.7941" fill="white" transform="translate(18.2576 18.2573)"/>
</clipPath>
</defs>
</svg>
