<?xml version="1.0" encoding="utf-8"?>
<svg xmlns="http://www.w3.org/2000/svg">
    <defs>
        <symbol id="shopify" viewBox="0 0 24 24">
            <path fill-rule="evenodd" clip-rule="evenodd"
                d="M14.625 4.499C14.999 4.373 15.249 4.373 15.249 4.373L14.503 22L3.25195 19.875C3.25195 19.875 4.74995 8.5 4.74995 8.125C4.74995 7.627 4.74995 7.627 5.37395 7.376C5.42795 7.376 5.57695 7.329 5.80895 7.255C6.24271 7.1141 6.68094 6.98736 7.12295 6.875C7.49995 5.25 8.74995 2 11.374 2C11.751 2 12.124 2.123 12.374 2.624H12.5C13.625 2.624 14.25 3.499 14.625 4.499ZM11.083 5.636C11.521 5.502 11.974 5.364 12.375 5.123C12.375 4.373 12.249 3.872 12.124 3.371C11.5 3.621 10.751 4.371 10.374 5.872C10.6069 5.78355 10.8435 5.70482 11.083 5.636ZM11.625 2.875C11.5 2.749 11.375 2.749 11.249 2.749C9.49695 2.749 8.37495 5.123 7.99895 6.627C8.24895 6.564 8.49895 6.47 8.74895 6.376C8.99895 6.282 9.24895 6.188 9.49995 6.126C9.87595 4.126 10.876 3.251 11.625 2.875ZM10.249 10.997C10.999 10.997 11.748 11.373 11.748 11.373L12.247 9.125C12.247 9.125 11.748 8.875 10.748 8.875C7.99795 8.875 6.74795 10.624 6.74795 12.499C6.74795 13.759 7.45595 14.313 8.07795 14.799C8.56495 15.179 8.99795 15.519 8.99795 16.123C8.99795 16.371 8.87295 16.872 8.24895 16.872C7.37495 16.872 6.37495 15.997 6.37495 15.997L5.87295 17.747C5.87295 17.747 6.87295 18.997 8.87295 18.997C10.497 18.997 11.748 17.747 11.748 15.872C11.748 14.342 10.717 13.607 9.91795 13.039C9.41095 12.679 8.99795 12.385 8.99795 11.997C8.99795 11.747 8.99795 10.997 10.249 10.997ZM12.748 3.371C12.873 3.747 12.998 4.248 12.998 4.872V4.997C13.187 4.997 13.343 4.966 13.498 4.935C13.655 4.903 13.811 4.872 13.998 4.872C13.748 4.12 13.372 3.371 12.748 3.371ZM18.372 5.747C18.497 5.747 18.622 5.747 18.622 5.872C18.622 5.935 19.16 9.662 19.694 13.37C20.222 17.038 20.748 20.686 20.748 20.747L14.748 21.997L15.498 4.499H15.623L16.748 5.621C16.748 5.621 18.247 5.747 18.372 5.747Z"
            />
        </symbol>
        <symbol id="liquid" viewBox="0 0 24 24">
            <path
                d="M9.00244 3.25749C8.91975 3.25725 8.83782 3.2734 8.76134 3.30499C8.68486 3.33659 8.61533 3.38303 8.55671 3.44165C8.49809 3.50027 8.45154 3.56993 8.41972 3.64664C8.3879 3.72335 8.37143 3.80561 8.37125 3.88872V6.5386C8.37155 6.66645 8.3969 6.79299 8.44587 6.91099C8.49484 7.02899 8.56646 7.13614 8.65663 7.22631C8.74681 7.31649 8.85378 7.38792 8.97143 7.43653C9.08908 7.48514 9.21511 7.50997 9.34231 7.50961H11.2368C11.3641 7.50925 11.4902 7.53409 11.6079 7.58272C11.7256 7.63135 11.8327 7.7028 11.9229 7.79301C12.0132 7.88322 12.0849 7.99042 12.1339 8.10847C12.183 8.22653 12.2084 8.35314 12.2088 8.48108V11.3608C12.2089 11.4888 12.2342 11.6156 12.2831 11.7337C12.3321 11.8519 12.4037 11.9593 12.4939 12.0496C12.5841 12.14 12.6912 12.2116 12.809 12.2603C12.9267 12.309 13.0529 12.334 13.1803 12.3337H16.0608C16.3176 12.3331 16.5641 12.4349 16.7462 12.6169C16.9282 12.7989 17.031 13.0461 17.0318 13.3042V15.1979C17.032 15.3259 17.0573 15.4525 17.1062 15.5707C17.1552 15.6888 17.2268 15.7961 17.3171 15.8864C17.4073 15.9766 17.5144 16.0481 17.6321 16.0968C17.7499 16.1454 17.876 16.1702 18.0033 16.1698H20.6511C20.7338 16.1701 20.8158 16.1539 20.8923 16.1223C20.9689 16.0907 21.0385 16.0442 21.0971 15.9855C21.1558 15.9269 21.2024 15.8572 21.2342 15.7804C21.2661 15.7036 21.2825 15.6213 21.2827 15.5381V3.89009C21.2827 3.80692 21.2663 3.72457 21.2346 3.64776C21.2028 3.57095 21.1563 3.50117 21.0978 3.44243C21.0392 3.38368 20.9697 3.33711 20.8932 3.30538C20.8167 3.27365 20.7347 3.25737 20.652 3.25749H9.00244ZM8.30591 15.5637V9.52096C8.30585 9.39307 8.28071 9.26644 8.23194 9.14832C8.18316 9.0302 8.1117 8.9229 8.02165 8.83255C7.93159 8.7422 7.8247 8.67058 7.70709 8.62178C7.58948 8.57297 7.46345 8.54794 7.33621 8.54812H3.91436C3.83153 8.54788 3.74947 8.56407 3.67288 8.59574C3.59629 8.62742 3.52666 8.67397 3.46799 8.73273C3.40932 8.79149 3.36275 8.86131 3.33096 8.93818C3.29917 9.01505 3.28277 9.09747 3.28271 9.18072V20.6285C3.28332 20.7964 3.35016 20.9573 3.46857 21.0757C3.58699 21.1941 3.74731 21.2605 3.91436 21.2602H15.5634C15.6462 21.2605 15.7281 21.2443 15.8046 21.2127C15.8812 21.1811 15.9507 21.1346 16.0093 21.0759C16.068 21.0172 16.1145 20.9475 16.1463 20.8708C16.1781 20.794 16.1945 20.7117 16.1946 20.6285V17.5071C16.1943 17.3792 16.169 17.2526 16.12 17.1345C16.071 17.0164 15.9993 16.9093 15.9091 16.819C15.8189 16.7288 15.7119 16.6574 15.5942 16.6087C15.4765 16.5601 15.3504 16.5352 15.2231 16.5356H9.27878C9.0218 16.5362 8.7751 16.4342 8.59292 16.252C8.41074 16.0699 8.30799 15.8224 8.30727 15.5641"
            />
        </symbol>
        <symbol id="webflow" viewBox="0 0 24 24">
            <path
                d="M2.5 12C2.5 7.522 2.5 5.282 3.891 3.891C5.282 2.5 7.521 2.5 12 2.5C16.478 2.5 18.718 2.5 20.109 3.891C21.5 5.282 21.5 7.521 21.5 12C21.5 16.478 21.5 18.718 20.109 20.109C18.718 21.5 16.479 21.5 12 21.5C7.522 21.5 5.282 21.5 3.891 20.109C2.5 18.718 2.5 16.479 2.5 12Z"
                stroke-width="1.5" stroke-linecap="round" stroke-linejoin="round" />
            <path d="M7.5 9L8.5 16C10.5 14.8 12 10.833 12.5 9L14 16C16 14.4 17.167 10.667 17.5 9"
                stroke-width="1.5" stroke-linecap="round" stroke-linejoin="round" />
        </symbol>
        <symbol id="ae" viewBox="0 0 24 24">
            <path
                d="M21 7V17C21 18.0609 20.5786 19.0783 19.8284 19.8284C19.0783 20.5786 18.0609 21 17 21H7C5.93913 21 4.92172 20.5786 4.17157 19.8284C3.42143 19.0783 3 18.0609 3 17V7C3 5.93913 3.42143 4.92172 4.17157 4.17157C4.92172 3.42143 5.93913 3 7 3H17C18.0609 3 19.0783 3.42143 19.8284 4.17157C20.5786 4.92172 21 5.93913 21 7Z"
                stroke-width="1.5" stroke-linecap="round" stroke-linejoin="round" />
            <path
                d="M14 13V12C14 11.4696 14.2107 10.9609 14.5858 10.5858C14.9609 10.2107 15.4696 10 16 10C16.5304 10 17.0391 10.2107 17.4142 10.5858C17.7893 10.9609 18 11.4696 18 12V13H14ZM14 13V14C14 14.5304 14.2107 15.0391 14.5858 15.4142C14.9609 15.7893 15.4696 16 16 16H17.5M6 16L7.125 13M7.125 13L9 8L10.875 13M7.125 13H10.875M12 16L10.875 13"
                stroke-width="1.5" stroke-linecap="round" stroke-linejoin="round" />
        </symbol>
        <symbol id="ai" viewBox="0 0 24 24">
            <path
                d="M16 12V16M16 9V9.01M21 7V17C21 18.0609 20.5786 19.0783 19.8284 19.8284C19.0783 20.5786 18.0609 21 17 21H7C5.93913 21 4.92172 20.5786 4.17157 19.8284C3.42143 19.0783 3 18.0609 3 17V7C3 5.93913 3.42143 4.92172 4.17157 4.17157C4.92172 3.42143 5.93913 3 7 3H17C18.0609 3 19.0783 3.42143 19.8284 4.17157C20.5786 4.92172 21 5.93913 21 7Z"
                stroke-width="1.5" stroke-linecap="round" stroke-linejoin="round" />
            <path d="M7 16L8.125 13M8.125 13L10 8L11.875 13M8.125 13H11.875M13 16L11.875 13"
                stroke-width="1.5" stroke-linecap="round" stroke-linejoin="round" />
        </symbol>
        <symbol id="ps" viewBox="0 0 24 24">
            <path
                d="M21 7V17C21 18.0609 20.5786 19.0783 19.8284 19.8284C19.0783 20.5786 18.0609 21 17 21H7C5.93913 21 4.92172 20.5786 4.17157 19.8284C3.42143 19.0783 3 18.0609 3 17V7C3 5.93913 3.42143 4.92172 4.17157 4.17157C4.92172 3.42143 5.93913 3 7 3H17C18.0609 3 19.0783 3.42143 19.8284 4.17157C20.5786 4.92172 21 5.93913 21 7Z"
                stroke-width="1.5" stroke-linecap="round" stroke-linejoin="round" />
            <path
                d="M7 16V12M7 12V8H9C9.53043 8 10.0391 8.21071 10.4142 8.58579C10.7893 8.96086 11 9.46957 11 10C11 10.5304 10.7893 11.0391 10.4142 11.4142C10.0391 11.7893 9.53043 12 9 12H7ZM17 11C16.694 10.387 16.067 10 15.382 10H15C14.6022 10 14.2206 10.158 13.9393 10.4393C13.658 10.7206 13.5 11.1022 13.5 11.5C13.5 11.8978 13.658 12.2794 13.9393 12.5607C14.2206 12.842 14.6022 13 15 13H15.5C15.8978 13 16.2794 13.158 16.5607 13.4393C16.842 13.7206 17 14.1022 17 14.5C17 14.8978 16.842 15.2794 16.5607 15.5607C16.2794 15.842 15.8978 16 15.5 16H15.118C14.7821 15.9999 14.4528 15.9063 14.1671 15.7297C13.8813 15.5531 13.6503 15.3004 13.5 15"
                stroke-width="1.5" stroke-linecap="round" stroke-linejoin="round" />
        </symbol>
        <symbol id="figma" viewBox="0 0 24 24">
            <path
                d="M8.667 8.667C7.7829 8.667 6.93501 8.31579 6.30986 7.69064C5.6847 7.06549 5.3335 6.2176 5.3335 5.3335C5.3335 4.4494 5.6847 3.60151 6.30986 2.97636C6.93501 2.35121 7.7829 2 8.667 2H12V8.667M8.667 8.667H12M8.667 8.667C7.78303 8.667 6.93527 9.01815 6.31021 9.64321C5.68515 10.2683 5.334 11.116 5.334 12C5.334 12.884 5.68515 13.7317 6.31021 14.3568C6.93527 14.9818 7.78303 15.333 8.667 15.333H12V8.667"
                stroke-width="1.5" />
            <path
                d="M18.667 12C18.667 12.8841 18.3158 13.732 17.6906 14.3571C17.0655 14.9823 16.2176 15.3335 15.3335 15.3335C14.4494 15.3335 13.6015 14.9823 12.9763 14.3571C12.3512 13.732 12 12.8841 12 12C12 11.1159 12.3512 10.268 12.9763 9.64286C13.6015 9.01771 14.4494 8.6665 15.3335 8.6665C16.2176 8.6665 17.0655 9.01771 17.6906 9.64286C18.3158 10.268 18.667 11.1159 18.667 12ZM8.66699 15.334H12V18.667C11.9998 19.3262 11.8041 19.9705 11.4378 20.5184C11.0714 21.0664 10.5508 21.4935 9.94178 21.7456C9.33273 21.9977 8.66261 22.0636 8.01614 21.9348C7.36966 21.8061 6.77587 21.4886 6.30985 21.0224C5.84382 20.5563 5.52648 19.9624 5.39796 19.3159C5.26943 18.6694 5.33549 17.9993 5.58779 17.3903C5.84009 16.7813 6.26729 16.2608 6.81537 15.8946C7.36346 15.5285 8.00782 15.334 8.66699 15.334Z"
                stroke-width="1.5" />
            <path
                d="M12 2H15.333C16.2171 2 17.065 2.35121 17.6901 2.97636C18.3153 3.60151 18.6665 4.4494 18.6665 5.3335C18.6665 6.2176 18.3153 7.06549 17.6901 7.69064C17.065 8.31579 16.2171 8.667 15.333 8.667H12V2Z"
                stroke-width="1.5" />
        </symbol>
        <symbol id="react" viewBox="0 0 24 24">
            <path
                d="M12 10.11C13.03 10.11 13.87 10.95 13.87 12C13.87 13 13.03 13.85 12 13.85C10.97 13.85 10.13 13 10.13 12C10.13 10.95 10.97 10.11 12 10.11ZM7.37 20C8 20.38 9.38 19.8 10.97 18.3C10.45 17.71 9.94 17.07 9.46 16.4C8.65422 16.3223 7.85311 16.2022 7.06 16.04C6.55 18.18 6.74 19.65 7.37 20ZM8.08 14.26L7.79 13.75C7.68 14.04 7.57 14.33 7.5 14.61C7.77 14.67 8.07 14.72 8.38 14.77L8.08 14.26ZM14.62 13.5L15.43 12L14.62 10.5C14.32 9.97 14 9.5 13.71 9.03C13.17 9 12.6 9 12 9C11.4 9 10.83 9 10.29 9.03C10 9.5 9.68 9.97 9.38 10.5L8.57 12L9.38 13.5C9.68 14.03 10 14.5 10.29 14.97C10.83 15 11.4 15 12 15C12.6 15 13.17 15 13.71 14.97C14 14.5 14.32 14.03 14.62 13.5ZM12 6.78C11.81 7 11.61 7.23 11.41 7.5H12.59C12.39 7.23 12.19 7 12 6.78ZM12 17.22C12.19 17 12.39 16.77 12.59 16.5H11.41C11.61 16.77 11.81 17 12 17.22ZM16.62 4C16 3.62 14.62 4.2 13.03 5.7C13.55 6.29 14.06 6.93 14.54 7.6C15.36 7.68 16.17 7.8 16.94 7.96C17.45 5.82 17.26 4.35 16.62 4ZM15.92 9.74L16.21 10.25C16.32 9.96 16.43 9.67 16.5 9.39C16.23 9.33 15.93 9.28 15.62 9.23L15.92 9.74ZM17.37 2.69C18.84 3.53 19 5.74 18.38 8.32C20.92 9.07 22.75 10.31 22.75 12C22.75 13.69 20.92 14.93 18.38 15.68C19 18.26 18.84 20.47 17.37 21.31C15.91 22.15 13.92 21.19 12 19.36C10.08 21.19 8.09 22.15 6.62 21.31C5.16 20.47 5 18.26 5.62 15.68C3.08 14.93 1.25 13.69 1.25 12C1.25 10.31 3.08 9.07 5.62 8.32C5 5.74 5.16 3.53 6.62 2.69C8.09 1.85 10.08 2.81 12 4.64C13.92 2.81 15.91 1.85 17.37 2.69ZM17.08 12C17.42 12.75 17.72 13.5 17.97 14.26C20.07 13.63 21.25 12.73 21.25 12C21.25 11.27 20.07 10.37 17.97 9.74C17.72 10.5 17.42 11.25 17.08 12ZM6.92 12C6.58 11.25 6.28 10.5 6.03 9.74C3.93 10.37 2.75 11.27 2.75 12C2.75 12.73 3.93 13.63 6.03 14.26C6.28 13.5 6.58 12.75 6.92 12ZM15.92 14.26L15.62 14.77C15.93 14.72 16.23 14.67 16.5 14.61C16.43 14.33 16.32 14.04 16.21 13.75L15.92 14.26ZM13.03 18.3C14.62 19.8 16 20.38 16.62 20C17.26 19.65 17.45 18.18 16.94 16.04C16.17 16.2 15.36 16.32 14.54 16.4C14.06 17.07 13.55 17.71 13.03 18.3ZM8.08 9.74L8.38 9.23C8.07 9.28 7.77 9.33 7.5 9.39C7.57 9.67 7.68 9.96 7.79 10.25L8.08 9.74ZM10.97 5.7C9.38 4.2 8 3.62 7.37 4C6.74 4.35 6.55 5.82 7.06 7.96C7.85311 7.79785 8.65422 7.67768 9.46 7.6C9.94 6.93 10.45 6.29 10.97 5.7Z"
            />
        </symbol>
        <symbol id="mongo" viewBox="0 0 24 24">
            <path
                d="M13.74 4.22999C12.9 3.22999 12.17 2.22999 12.03 2.00999H12C11.86 2.21999 11.13 3.22999 10.29 4.22999C3.08998 13.42 11.43 19.62 11.43 19.62L11.5 19.67C11.56 20.62 11.72 22 11.72 22H12.34C12.34 22 12.49 20.63 12.55 19.67L12.62 19.61C12.62 19.61 20.94 13.42 13.74 4.22999ZM12 19.48C11.8247 19.336 11.664 19.1753 11.52 19L12 8.99999L12.45 19C12.3151 19.1735 12.1644 19.3342 12 19.48Z"
            />
        </symbol>
        <symbol id="node" viewBox="0 0 24 24">
            <path
                d="M12 23.956C11.658 23.956 11.34 23.867 11.043 23.713L8.014 21.975C7.559 21.733 7.787 21.645 7.924 21.601C8.538 21.403 8.652 21.359 9.29 21.006C9.358 20.962 9.45 20.984 9.518 21.028L11.841 22.371C11.931 22.415 12.046 22.415 12.114 22.371L21.201 17.287C21.291 17.243 21.337 17.155 21.337 17.045V6.899C21.337 6.789 21.292 6.701 21.201 6.657L12.114 1.596C12.023 1.552 11.909 1.552 11.841 1.596L2.754 6.657C2.663 6.701 2.617 6.811 2.617 6.899V17.045C2.617 17.133 2.663 17.243 2.754 17.287L5.236 18.674C6.58 19.334 7.422 18.564 7.422 17.794V7.78C7.422 7.648 7.536 7.516 7.696 7.516H8.857C8.994 7.516 9.13 7.626 9.13 7.78V17.793C9.13 19.532 8.151 20.544 6.443 20.544C5.919 20.544 5.509 20.544 4.348 19.994L1.957 18.674C1.66888 18.5156 1.42828 18.2831 1.26005 18.0006C1.09181 17.7181 1.00204 17.3958 1 17.067V6.921C1 6.261 1.364 5.645 1.957 5.315L11.044 0.230002C11.3398 0.0782879 11.6675 -0.000839233 12 -0.000839233C12.3325 -0.000839233 12.6602 0.0782879 12.956 0.230002L22.044 5.314C22.636 5.644 23 6.26 23 6.92V17.066C23 17.726 22.636 18.342 22.044 18.673L12.957 23.756C12.655 23.8869 12.3292 23.9543 12 23.954M14.801 16.977C10.816 16.977 9.996 15.217 9.996 13.72C9.996 13.588 10.11 13.456 10.269 13.456H11.453C11.59 13.456 11.703 13.544 11.703 13.676C11.886 14.842 12.41 15.414 14.824 15.414C16.737 15.414 17.557 14.996 17.557 14.006C17.557 13.434 17.329 13.016 14.346 12.73C11.863 12.487 10.315 11.96 10.315 10.045C10.315 8.262 11.863 7.205 14.46 7.205C17.375 7.205 18.81 8.174 18.992 10.287C18.99 10.3585 18.9659 10.4277 18.923 10.485C18.878 10.529 18.81 10.573 18.741 10.573H17.557C17.4995 10.5716 17.444 10.5515 17.3989 10.5158C17.3538 10.4801 17.3215 10.4307 17.307 10.375C17.033 9.165 16.327 8.768 14.46 8.768C12.364 8.768 12.114 9.472 12.114 10.001C12.114 10.639 12.41 10.837 15.234 11.189C18.035 11.541 19.356 12.047 19.356 13.939C19.333 15.877 17.694 16.977 14.801 16.977Z"
            />
        </symbol>
        <symbol id="devexpress" viewBox="0 0 24 24">
            <path
                d="M1.4 0H22.6C23.4 0 24 0.6 24 1.4V2.5C24 3.3 23.4 3.5 23.1 3.5C11.7 4.9 4.2 9.7 0 14.1V1.4C0 0.6 0.6 0 1.4 0ZM1.422 19.567L1.7 19.2C5.3 14.6 12.4 8.3 24 6.3V22.6C24 23.4 23.4 24 22.6 24H1.4C0.6 24 0 23.4 0 22.6V22.2C0 21.9 0.2 21.4 0.3 21.3C0.552 20.711 0.946 20.193 1.422 19.567Z"
            />
        </symbol>
        <symbol id="bootstrap" viewBox="0 0 24 24">
            <path
                d="M1 11V13C1 13 3 13 3 17V18C3 18.7956 3.31607 19.5587 3.87868 20.1213C4.44129 20.6839 5.20435 21 6 21H18C18.7956 21 19.5587 20.6839 20.1213 20.1213C20.6839 19.5587 21 18.7956 21 18V17C21 13 23 13 23 13V11C23 11 21 11 21 7V6C21 5.20435 20.6839 4.44129 20.1213 3.87868C19.5587 3.31607 18.7956 3 18 3H6C5.20435 3 4.44129 3.31607 3.87868 3.87868C3.31607 4.44129 3 5.20435 3 6V7C3 11 1 11 1 11ZM20.674 12C20.644 12.028 20.6147 12.0567 20.586 12.086C19.578 13.093 19 14.692 19 17V18C19 18.2652 18.8946 18.5196 18.7071 18.7071C18.5196 18.8946 18.2652 19 18 19H6C5.73478 19 5.48043 18.8946 5.29289 18.7071C5.10536 18.5196 5 18.2652 5 18V17C5 14.692 4.422 13.093 3.414 12.086L3.326 12C3.356 11.972 3.38533 11.9433 3.414 11.914C4.422 10.907 5 9.308 5 7V6C5 5.73478 5.10536 5.48043 5.29289 5.29289C5.48043 5.10536 5.73478 5 6 5H18C18.2652 5 18.5196 5.10536 18.7071 5.29289C18.8946 5.48043 19 5.73478 19 6V7C19 9.308 19.578 10.907 20.586 11.914L20.674 12ZM8.5 7V17H13.5C14.1491 17.0003 14.7808 16.79 15.3003 16.4007C15.8197 16.0115 16.1989 15.4642 16.3809 14.8411C16.5629 14.2181 16.5379 13.5527 16.3097 12.9451C16.0814 12.3374 15.6622 11.8202 15.115 11.471C15.3718 11.0145 15.5047 10.4987 15.5003 9.97487C15.4959 9.45107 15.3544 8.93755 15.09 8.4854C14.8255 8.03324 14.4473 7.65821 13.9929 7.39761C13.5385 7.13701 13.0238 6.99993 12.5 7H8.5ZM10.5 11V9H12.5C12.7652 9 13.0196 9.10536 13.2071 9.29289C13.3946 9.48043 13.5 9.73478 13.5 10C13.5 10.2652 13.3946 10.5196 13.2071 10.7071C13.0196 10.8946 12.7652 11 12.5 11H10.5ZM10.5 13H13.5C13.7652 13 14.0196 13.1054 14.2071 13.2929C14.3946 13.4804 14.5 13.7348 14.5 14C14.5 14.2652 14.3946 14.5196 14.2071 14.7071C14.0196 14.8946 13.7652 15 13.5 15H10.5V13Z"
            />
        </symbol>
        <symbol id="github" viewBox="0 0 24 24">
            <path
                d="M12 2C10.6868 2 9.38642 2.25866 8.17317 2.7612C6.95991 3.26375 5.85752 4.00035 4.92893 4.92893C3.05357 6.8043 2 9.34784 2 12C2 16.42 4.87 20.17 8.84 21.5C9.34 21.58 9.5 21.27 9.5 21V19.31C6.73 19.91 6.14 17.97 6.14 17.97C5.68 16.81 5.03 16.5 5.03 16.5C4.12 15.88 5.1 15.9 5.1 15.9C6.1 15.97 6.63 16.93 6.63 16.93C7.5 18.45 8.97 18 9.54 17.76C9.63 17.11 9.89 16.67 10.17 16.42C7.95 16.17 5.62 15.31 5.62 11.5C5.62 10.39 6 9.5 6.65 8.79C6.55 8.54 6.2 7.5 6.75 6.15C6.75 6.15 7.59 5.88 9.5 7.17C10.29 6.95 11.15 6.84 12 6.84C12.85 6.84 13.71 6.95 14.5 7.17C16.41 5.88 17.25 6.15 17.25 6.15C17.8 7.5 17.45 8.54 17.35 8.79C18 9.5 18.38 10.39 18.38 11.5C18.38 15.32 16.04 16.16 13.81 16.41C14.17 16.72 14.5 17.33 14.5 18.26V21C14.5 21.27 14.66 21.59 15.17 21.5C19.14 20.16 22 16.42 22 12C22 10.6868 21.7413 9.38642 21.2388 8.17317C20.7362 6.95991 19.9997 5.85752 19.0711 4.92893C18.1425 4.00035 17.0401 3.26375 15.8268 2.7612C14.6136 2.25866 13.3132 2 12 2Z"
            />
        </symbol>
        <symbol id="instagram" viewBox="0 0 24 24">
            <path fill-rule="evenodd" clip-rule="evenodd"
                d="M12 2C9.284 2 8.944 2.012 7.877 2.06C6.813 2.109 6.086 2.278 5.45 2.525C4.78249 2.77584 4.17775 3.16933 3.678 3.678C3.16936 4.17777 2.77587 4.7825 2.525 5.45C2.278 6.086 2.109 6.813 2.06 7.877C2.011 8.944 2 9.284 2 12C2 14.716 2.011 15.056 2.06 16.123C2.109 17.187 2.278 17.914 2.525 18.55C2.7759 19.2175 3.16938 19.8222 3.678 20.322C4.17779 20.8306 4.78252 21.2241 5.45 21.475C6.086 21.722 6.813 21.891 7.877 21.94C8.944 21.988 9.284 22 12 22C14.716 22 15.056 21.988 16.123 21.94C17.187 21.891 17.914 21.722 18.55 21.475C19.2175 21.2241 19.8222 20.8306 20.322 20.322C20.8306 19.8222 21.2241 19.2175 21.475 18.55C21.722 17.914 21.891 17.187 21.94 16.123C21.988 15.056 22 14.716 22 12C22 9.284 21.988 8.944 21.94 7.877C21.891 6.813 21.722 6.086 21.475 5.45C21.2241 4.7825 20.8306 4.17777 20.322 3.678C19.8222 3.16933 19.2175 2.77584 18.55 2.525C17.914 2.278 17.187 2.109 16.123 2.06C15.056 2.012 14.716 2 12 2ZM12 3.802C14.67 3.802 14.986 3.812 16.04 3.86C17.016 3.905 17.545 4.067 17.898 4.204C18.364 4.386 18.698 4.603 19.048 4.952C19.398 5.302 19.614 5.636 19.796 6.102C19.932 6.455 20.096 6.984 20.14 7.959C20.188 9.014 20.198 9.329 20.198 12C20.198 14.67 20.188 14.986 20.14 16.04C20.095 17.016 19.932 17.545 19.796 17.898C19.6357 18.3324 19.3801 18.7253 19.048 19.048C18.698 19.398 18.364 19.614 17.898 19.796C17.545 19.932 17.016 20.096 16.041 20.14C14.987 20.188 14.671 20.198 12 20.198C9.33 20.198 9.013 20.188 7.96 20.14C6.984 20.095 6.455 19.932 6.102 19.796C5.66758 19.6357 5.27462 19.3801 4.952 19.048C4.61986 18.7254 4.36426 18.3324 4.204 17.898C4.067 17.545 3.904 17.016 3.86 16.041C3.812 14.986 3.802 14.671 3.802 12C3.802 9.33 3.812 9.014 3.86 7.96C3.905 6.984 4.067 6.455 4.204 6.102C4.386 5.636 4.603 5.302 4.952 4.952C5.302 4.602 5.636 4.386 6.102 4.204C6.455 4.067 6.984 3.904 7.959 3.86C9.014 3.812 9.329 3.802 12 3.802ZM12 15.333C11.116 15.333 10.2683 14.9818 9.64321 14.3568C9.01815 13.7317 8.667 12.884 8.667 12C8.667 11.116 9.01815 10.2683 9.64321 9.64321C10.2683 9.01815 11.116 8.667 12 8.667C12.884 8.667 13.7317 9.01815 14.3568 9.64321C14.9818 10.2683 15.333 11.116 15.333 12C15.333 12.884 14.9818 13.7317 14.3568 14.3568C13.7317 14.9818 12.884 15.333 12 15.333ZM12 6.865C11.3257 6.865 10.6579 6.99782 10.0349 7.25588C9.41191 7.51394 8.84584 7.89218 8.36901 8.36901C7.89218 8.84584 7.51394 9.41191 7.25588 10.0349C6.99782 10.6579 6.865 11.3257 6.865 12C6.865 12.6743 6.99782 13.3421 7.25588 13.9651C7.51394 14.5881 7.89218 15.1542 8.36901 15.631C8.84584 16.1078 9.41191 16.4861 10.0349 16.7441C10.6579 17.0022 11.3257 17.135 12 17.135C13.3619 17.135 14.668 16.594 15.631 15.631C16.594 14.668 17.135 13.3619 17.135 12C17.135 10.6381 16.594 9.33201 15.631 8.36901C14.668 7.40601 13.3619 6.865 12 6.865ZM18.538 6.662C18.538 6.81959 18.507 6.97563 18.4467 7.12122C18.3863 7.26681 18.298 7.3991 18.1865 7.51053C18.0751 7.62196 17.9428 7.71035 17.7972 7.77066C17.6516 7.83096 17.4956 7.862 17.338 7.862C17.1804 7.862 17.0244 7.83096 16.8788 7.77066C16.7332 7.71035 16.6009 7.62196 16.4895 7.51053C16.378 7.3991 16.2897 7.26681 16.2293 7.12122C16.169 6.97563 16.138 6.81959 16.138 6.662C16.138 6.34374 16.2644 6.03852 16.4895 5.81347C16.7145 5.58843 17.0197 5.462 17.338 5.462C17.6563 5.462 17.9615 5.58843 18.1865 5.81347C18.4116 6.03852 18.538 6.34374 18.538 6.662Z"
            />
        </symbol>
        <symbol id="wordpress" viewBox="0 0 24 24">
            <path
                d="M12 2C6.49 2 2 6.49 2 12C2 17.51 6.49 22 12 22C17.51 22 22 17.51 22 12C22 6.49 17.51 2 12 2ZM3.01 12C3.01 10.7 3.29 9.46 3.79 8.34L8.08 20.09C5.08 18.63 3.01 15.56 3.01 12ZM12 20.99C11.12 20.99 10.27 20.86 9.46 20.62L12.16 12.78L14.92 20.35C14.94 20.39 14.96 20.44 14.98 20.47C14.05 20.81 13.05 20.99 12 20.99ZM13.24 7.78C13.78 7.75 14.27 7.69 14.27 7.69C14.75 7.63 14.7 6.92 14.21 6.95C14.21 6.95 12.75 7.06 11.81 7.06C10.93 7.06 9.44 6.95 9.44 6.95C8.96 6.93 8.9 7.67 9.39 7.7C9.39 7.7 9.85 7.76 10.33 7.79L11.73 11.63L9.76 17.53L6.49 7.78C7.03 7.76 7.52 7.7 7.52 7.7C8 7.64 7.95 6.93 7.46 6.96C7.46 6.96 6 7.07 5.06 7.07C4.89 7.07 4.69 7.07 4.48 7.06C6.1 4.62 8.86 3.01 12 3.01C14.34 3.01 16.47 3.9 18.07 5.37C18.03 5.37 17.99 5.36 17.95 5.36C17.07 5.36 16.44 6.13 16.44 6.96C16.44 7.7 16.87 8.33 17.32 9.07C17.66 9.67 18.06 10.44 18.06 11.55C18.06 12.32 17.76 13.21 17.38 14.46L16.48 17.46L13.24 7.78ZM19.89 7.69C21.0132 9.74564 21.2895 12.1586 20.6601 14.4149C20.0306 16.6712 18.5451 18.5927 16.52 19.77L19.27 11.83C19.78 10.55 19.95 9.52 19.95 8.61C19.95 8.28 19.93 7.97 19.89 7.69Z"
            />
        </symbol>
        <symbol id="html" viewBox="0 0 24 24">
            <path
                d="M5.07996 0H6.16196V1.069H7.15196V0H8.23396V3.236H7.15196V2.153H6.16196V3.236H5.08096L5.07996 0ZM9.65596 1.073H8.70396V0H11.691V1.073H10.738V3.236H9.65596V1.073ZM12.165 0H13.293L13.987 1.137L14.68 0H15.808V3.236H14.731V1.632L13.987 2.783H13.968L13.223 1.633V3.236H12.165V0ZM16.346 0H17.429V2.167H18.949V3.237H16.346V0Z"
            />
            <path fill-rule="evenodd" clip-rule="evenodd"
                d="M5.046 22.072L3 4.717H21L18.953 22.07L11.99 24L5.046 22.072ZM9.183 12.572L8.989 10.392H17.134L17.324 8.264H6.664L7.238 14.701H14.615L14.368 17.461L11.994 18.103H11.992L9.622 17.463L9.47 15.766H7.332L7.63 19.108L11.99 20.318L16.357 19.108L16.889 13.144L16.941 12.573L9.183 12.572Z"
            />
        </symbol>
        <symbol id="css" viewBox="0 0 24 24">
            <path
                d="M7.50195 0H10.08V1.078H8.57995V2.156H10.08V3.234H7.50195V0ZM10.595 0H13.174V0.938H11.674V1.125H13.174V3.281H10.595V2.297H12.095V2.109H10.595V0ZM13.69 0H16.267V0.938H14.767V1.125H16.267V3.281H13.69V2.297H15.19V2.109H13.69V0Z"
            />
            <path fill-rule="evenodd" clip-rule="evenodd"
                d="M11.991 24L5.047 22.072L3 4.717H21L18.954 22.07L11.991 24ZM7.047 12.573L7.238 14.701H14.615L14.368 17.461L11.994 18.103H11.992L9.622 17.463L9.47 15.766H7.333L7.631 19.108L11.991 20.318L16.358 19.108L16.89 13.144L16.942 12.573L17.326 8.264H6.664L6.858 10.393H14.994L14.8 12.573H7.047Z"
            />
        </symbol>
        <symbol id="js" viewBox="0 0 24 24">
            <path
                d="M18 20.5H10.966C10.8806 21.0569 10.6369 21.5776 10.264 22H18C18.5304 22 19.0391 21.7893 19.4142 21.4142C19.7893 21.0391 20 20.5304 20 20V9.828C19.9999 9.29761 19.7891 8.78899 19.414 8.414L13.585 2.586L13.536 2.546L13.5 2.516C13.4313 2.4509 13.3582 2.39074 13.281 2.336C13.255 2.32012 13.2283 2.30544 13.201 2.292L13.153 2.268L13.103 2.239C13.049 2.208 12.994 2.176 12.937 2.152C12.7377 2.07285 12.5271 2.02626 12.313 2.014C12.293 2.01267 12.2733 2.01033 12.254 2.007L12.172 2H6C5.46957 2 4.96086 2.21071 4.58579 2.58579C4.21071 2.96086 4 3.46957 4 4V14.018C4.082 14.006 4.16533 14 4.25 14C4.74 14 5.182 14.201 5.5 14.525V4C5.5 3.86739 5.55268 3.74021 5.64645 3.64645C5.74021 3.55268 5.86739 3.5 6 3.5H12V8C12 8.53043 12.2107 9.03914 12.5858 9.41421C12.9609 9.78929 13.4696 10 14 10H18.5V20C18.5 20.1326 18.4473 20.2598 18.3536 20.3536C18.2598 20.4473 18.1326 20.5 18 20.5ZM17.378 8.5H14C13.8674 8.5 13.7402 8.44732 13.6464 8.35355C13.5527 8.25979 13.5 8.13261 13.5 8V4.621L17.378 8.5ZM4.25 15C4.44891 15 4.63968 15.079 4.78033 15.2197C4.92098 15.3603 5 15.5511 5 15.75V20C5 20.5304 4.78929 21.0391 4.41421 21.4142C4.03914 21.7893 3.53043 22 3 22C2.46957 22 1.96086 21.7893 1.58579 21.4142C1.21071 21.0391 1 20.5304 1 20V19.75C1 19.5511 1.07902 19.3603 1.21967 19.2197C1.36032 19.079 1.55109 19 1.75 19C1.94891 19 2.13968 19.079 2.28033 19.2197C2.42098 19.3603 2.5 19.5511 2.5 19.75V20C2.5 20.1326 2.55268 20.2598 2.64645 20.3536C2.74021 20.4473 2.86739 20.5 3 20.5C3.13261 20.5 3.25979 20.4473 3.35355 20.3536C3.44732 20.2598 3.5 20.1326 3.5 20V15.75C3.5 15.5511 3.57902 15.3603 3.71967 15.2197C3.86032 15.079 4.05109 15 4.25 15ZM7.95 15C7.43283 15 6.93684 15.2054 6.57114 15.5711C6.20545 15.9368 6 16.4328 6 16.95V17.184C6 17.798 6.323 18.368 6.85 18.684L8.379 19.602C8.41589 19.6242 8.44642 19.6556 8.46762 19.6931C8.48882 19.7306 8.49997 19.7729 8.5 19.816V20.05C8.5 20.1693 8.45259 20.2838 8.3682 20.3682C8.28381 20.4526 8.16935 20.5 8.05 20.5H7.95C7.83065 20.5 7.71619 20.4526 7.6318 20.3682C7.54741 20.2838 7.5 20.1693 7.5 20.05V20C7.5 19.8011 7.42098 19.6103 7.28033 19.4697C7.13968 19.329 6.94891 19.25 6.75 19.25C6.55109 19.25 6.36032 19.329 6.21967 19.4697C6.07902 19.6103 6 19.8011 6 20V20.05C6 20.5672 6.20545 21.0632 6.57114 21.4289C6.93684 21.7946 7.43283 22 7.95 22H8.05C8.56717 22 9.06316 21.7946 9.42886 21.4289C9.79455 21.0632 10 20.5672 10 20.05V19.816C9.99986 19.5139 9.92149 19.2169 9.77254 18.9541C9.62358 18.6912 9.40911 18.4714 9.15 18.316L7.621 17.398C7.5841 17.3758 7.55358 17.3444 7.53238 17.3069C7.51118 17.2694 7.50003 17.2271 7.5 17.184V16.95C7.5 16.8307 7.54741 16.7162 7.6318 16.6318C7.71619 16.5474 7.83065 16.5 7.95 16.5H8.05C8.16935 16.5 8.28381 16.5474 8.3682 16.6318C8.45259 16.7162 8.5 16.8307 8.5 16.95V17C8.5 17.1989 8.57902 17.3897 8.71967 17.5303C8.86032 17.671 9.05109 17.75 9.25 17.75C9.44891 17.75 9.63968 17.671 9.78033 17.5303C9.92098 17.3897 10 17.1989 10 17V16.95C10 16.4328 9.79455 15.9368 9.42886 15.5711C9.06316 15.2054 8.56717 15 8.05 15H7.95Z"
            />
        </symbol>
        <symbol id="sketch" viewBox="0 0 24 24">
            <path d="M17 9.5L12 3L7 9.5L12 21L17 9.5Z" stroke-width="1.5"
                stroke-linecap="round" stroke-linejoin="round" />
            <path
                d="M17.5 4L22 9.5M17.5 4L17 9.5M17.5 4L12 3L6.5 4M22 9.5H17M22 9.5L12 21L2 9.5M17 9.5H7M6.5 4L2 9.5M6.5 4L7 9.5M7 9.5H2"
                stroke-width="1.5" stroke-linecap="round" stroke-linejoin="round" />
        </symbol>

    </defs>
</svg>