<svg width="24" height="24" viewBox="0 0 24 24" fill="none" xmlns="http://www.w3.org/2000/svg">
<path d="M1 11V13C1 13 3 13 3 17V18C3 18.7956 3.31607 19.5587 3.87868 20.1213C4.44129 20.6839 5.20435 21 6 21H18C18.7956 21 19.5587 20.6839 20.1213 20.1213C20.6839 19.5587 21 18.7956 21 18V17C21 13 23 13 23 13V11C23 11 21 11 21 7V6C21 5.20435 20.6839 4.44129 20.1213 3.87868C19.5587 3.31607 18.7956 3 18 3H6C5.20435 3 4.44129 3.31607 3.87868 3.87868C3.31607 4.44129 3 5.20435 3 6V7C3 11 1 11 1 11ZM20.674 12C20.644 12.028 20.6147 12.0567 20.586 12.086C19.578 13.093 19 14.692 19 17V18C19 18.2652 18.8946 18.5196 18.7071 18.7071C18.5196 18.8946 18.2652 19 18 19H6C5.73478 19 5.48043 18.8946 5.29289 18.7071C5.10536 18.5196 5 18.2652 5 18V17C5 14.692 4.422 13.093 3.414 12.086L3.326 12C3.356 11.972 3.38533 11.9433 3.414 11.914C4.422 10.907 5 9.308 5 7V6C5 5.73478 5.10536 5.48043 5.29289 5.29289C5.48043 5.10536 5.73478 5 6 5H18C18.2652 5 18.5196 5.10536 18.7071 5.29289C18.8946 5.48043 19 5.73478 19 6V7C19 9.308 19.578 10.907 20.586 11.914L20.674 12ZM8.5 7V17H13.5C14.1491 17.0003 14.7808 16.79 15.3003 16.4007C15.8197 16.0115 16.1989 15.4642 16.3809 14.8411C16.5629 14.2181 16.5379 13.5527 16.3097 12.9451C16.0814 12.3374 15.6622 11.8202 15.115 11.471C15.3718 11.0145 15.5047 10.4987 15.5003 9.97487C15.4959 9.45107 15.3544 8.93755 15.09 8.4854C14.8255 8.03324 14.4473 7.65821 13.9929 7.39761C13.5385 7.13701 13.0238 6.99993 12.5 7H8.5ZM10.5 11V9H12.5C12.7652 9 13.0196 9.10536 13.2071 9.29289C13.3946 9.48043 13.5 9.73478 13.5 10C13.5 10.2652 13.3946 10.5196 13.2071 10.7071C13.0196 10.8946 12.7652 11 12.5 11H10.5ZM10.5 13H13.5C13.7652 13 14.0196 13.1054 14.2071 13.2929C14.3946 13.4804 14.5 13.7348 14.5 14C14.5 14.2652 14.3946 14.5196 14.2071 14.7071C14.0196 14.8946 13.7652 15 13.5 15H10.5V13Z" fill="black"/>
</svg>
