<svg width="24" height="24" viewBox="0 0 24 24" fill="none" xmlns="http://www.w3.org/2000/svg">
<g clip-path="url(#clip0_647_4787)">
<path d="M1.4 0H22.6C23.4 0 24 0.6 24 1.4V2.5C24 3.3 23.4 3.5 23.1 3.5C11.7 4.9 4.2 9.7 0 14.1V1.4C0 0.6 0.6 0 1.4 0ZM1.422 19.567L1.7 19.2C5.3 14.6 12.4 8.3 24 6.3V22.6C24 23.4 23.4 24 22.6 24H1.4C0.6 24 0 23.4 0 22.6V22.2C0 21.9 0.2 21.4 0.3 21.3C0.552 20.711 0.946 20.193 1.422 19.567Z" fill="black"/>
</g>
<defs>
<clipPath id="clip0_647_4787">
<rect width="24" height="24" fill="white"/>
</clipPath>
</defs>
</svg>
