<svg width="24" height="24" viewBox="0 0 24 24" fill="none" xmlns="http://www.w3.org/2000/svg">
<path d="M9.00244 3.25749C8.91975 3.25725 8.83782 3.2734 8.76134 3.30499C8.68486 3.33659 8.61533 3.38303 8.55671 3.44165C8.49809 3.50027 8.45154 3.56993 8.41972 3.64664C8.3879 3.72335 8.37143 3.80561 8.37125 3.88872V6.5386C8.37155 6.66645 8.3969 6.79299 8.44587 6.91099C8.49484 7.02899 8.56646 7.13614 8.65663 7.22631C8.74681 7.31649 8.85378 7.38792 8.97143 7.43653C9.08908 7.48514 9.21511 7.50997 9.34231 7.50961H11.2368C11.3641 7.50925 11.4902 7.53409 11.6079 7.58272C11.7256 7.63135 11.8327 7.7028 11.9229 7.79301C12.0132 7.88322 12.0849 7.99042 12.1339 8.10847C12.183 8.22653 12.2084 8.35314 12.2088 8.48108V11.3608C12.2089 11.4888 12.2342 11.6156 12.2831 11.7337C12.3321 11.8519 12.4037 11.9593 12.4939 12.0496C12.5841 12.14 12.6912 12.2116 12.809 12.2603C12.9267 12.309 13.0529 12.334 13.1803 12.3337H16.0608C16.3176 12.3331 16.5641 12.4349 16.7462 12.6169C16.9282 12.7989 17.031 13.0461 17.0318 13.3042V15.1979C17.032 15.3259 17.0573 15.4525 17.1062 15.5707C17.1552 15.6888 17.2268 15.7961 17.3171 15.8864C17.4073 15.9766 17.5144 16.0481 17.6321 16.0968C17.7499 16.1454 17.876 16.1702 18.0033 16.1698H20.6511C20.7338 16.1701 20.8158 16.1539 20.8923 16.1223C20.9689 16.0907 21.0385 16.0442 21.0971 15.9855C21.1558 15.9269 21.2024 15.8572 21.2342 15.7804C21.2661 15.7036 21.2825 15.6213 21.2827 15.5381V3.89009C21.2827 3.80692 21.2663 3.72457 21.2346 3.64776C21.2028 3.57095 21.1563 3.50117 21.0978 3.44243C21.0392 3.38368 20.9697 3.33711 20.8932 3.30538C20.8167 3.27365 20.7347 3.25737 20.652 3.25749H9.00244ZM8.30591 15.5637V9.52096C8.30585 9.39307 8.28071 9.26644 8.23194 9.14832C8.18316 9.0302 8.1117 8.9229 8.02165 8.83255C7.93159 8.7422 7.8247 8.67058 7.70709 8.62178C7.58948 8.57297 7.46345 8.54794 7.33621 8.54812H3.91436C3.83153 8.54788 3.74947 8.56407 3.67288 8.59574C3.59629 8.62742 3.52666 8.67397 3.46799 8.73273C3.40932 8.79149 3.36275 8.86131 3.33096 8.93818C3.29917 9.01505 3.28277 9.09747 3.28271 9.18072V20.6285C3.28332 20.7964 3.35016 20.9573 3.46857 21.0757C3.58699 21.1941 3.74731 21.2605 3.91436 21.2602H15.5634C15.6462 21.2605 15.7281 21.2443 15.8046 21.2127C15.8812 21.1811 15.9507 21.1346 16.0093 21.0759C16.068 21.0172 16.1145 20.9475 16.1463 20.8708C16.1781 20.794 16.1945 20.7117 16.1946 20.6285V17.5071C16.1943 17.3792 16.169 17.2526 16.12 17.1345C16.071 17.0164 15.9993 16.9093 15.9091 16.819C15.8189 16.7288 15.7119 16.6574 15.5942 16.6087C15.4765 16.5601 15.3504 16.5352 15.2231 16.5356H9.27878C9.0218 16.5362 8.7751 16.4342 8.59292 16.252C8.41074 16.0699 8.30799 15.8224 8.30727 15.5641" fill="black"/>
</svg>
