<svg width="24" height="24" viewBox="0 0 24 24" fill="none" xmlns="http://www.w3.org/2000/svg">
<g clip-path="url(#clip0_751_14592)">
<path fill-rule="evenodd" clip-rule="evenodd" d="M22.3689 17.676C20.9819 18.935 19.1989 20.054 17.0369 21.093C17.0809 21.123 17.1229 21.15 17.1669 21.176L17.1849 21.186L17.2039 21.198C17.4199 21.321 17.6239 21.382 17.8449 21.382C18.0669 21.382 18.2709 21.321 18.4869 21.198L18.5049 21.187L18.5239 21.176C18.6639 21.092 18.7899 20.998 19.0159 20.81L19.1939 20.662C19.4729 20.43 19.6199 20.32 19.8189 20.206C20.1229 20.032 20.4309 19.94 20.7679 19.94C21.1049 19.94 21.4129 20.032 21.7169 20.206L21.7399 20.22C21.9279 20.329 22.0739 20.439 22.3419 20.662L22.5199 20.81C22.7409 20.994 22.8659 21.088 23.0029 21.17L23.0309 21.187L23.0489 21.197C23.2589 21.317 23.4559 21.378 23.6689 21.382H23.6909C23.7336 21.3786 23.7765 21.384 23.817 21.398C23.8574 21.4119 23.8946 21.4341 23.926 21.4632C23.9575 21.4922 23.9826 21.5274 23.9998 21.5666C24.0169 21.6058 24.0258 21.6482 24.0258 21.691C24.0258 21.7338 24.0169 21.7761 23.9998 21.8154C23.9826 21.8546 23.9575 21.8898 23.926 21.9188C23.8946 21.9479 23.8574 21.9701 23.817 21.984C23.7765 21.998 23.7336 22.0034 23.6909 22C23.3539 22 23.0459 21.908 22.7409 21.734C22.7106 21.7165 22.6806 21.6985 22.6509 21.68L22.6289 21.666L22.6069 21.653L22.5869 21.639C22.4165 21.5229 22.2529 21.397 22.0969 21.262L21.9379 21.13C21.7866 20.9975 21.6251 20.8771 21.4549 20.77L21.4279 20.753L21.4089 20.743C21.2158 20.6247 20.9944 20.5607 20.7679 20.558C20.5459 20.558 20.3419 20.619 20.1269 20.742L20.1069 20.753L20.0889 20.764C19.9489 20.848 19.8229 20.942 19.5969 21.13L19.4389 21.262C19.2772 21.4025 19.1069 21.5328 18.9289 21.652L18.9069 21.666L18.8849 21.68L18.7949 21.734C18.5078 21.9062 18.1797 21.9981 17.8449 22C17.5079 22 17.2009 21.908 16.8959 21.734C16.8656 21.7165 16.8356 21.6985 16.8059 21.68L16.7839 21.666L16.7619 21.653L16.7359 21.636C16.5884 21.5355 16.4465 21.427 16.3109 21.311C16.263 21.2885 16.2217 21.2541 16.1909 21.211L16.0929 21.13C15.9416 20.9975 15.7801 20.8771 15.6099 20.77L15.5829 20.753L15.5639 20.743C15.3708 20.6247 15.1494 20.5607 14.9229 20.558C14.7009 20.558 14.4969 20.619 14.2809 20.742L14.2629 20.753L14.2439 20.764C14.1039 20.848 13.9779 20.942 13.7519 21.13L13.5939 21.262C13.4322 21.4025 13.2619 21.5328 13.0839 21.652L13.0609 21.666L13.0389 21.68L12.9489 21.734C12.6621 21.906 12.3344 21.9979 11.9999 22C11.6629 22 11.3549 21.908 11.0509 21.734C11.0206 21.7165 10.9906 21.6985 10.9609 21.68L10.9389 21.666L10.9169 21.653L10.8959 21.639C10.7255 21.5229 10.5619 21.397 10.4059 21.262L10.2479 21.13C10.0966 20.9975 9.93511 20.8771 9.76492 20.77L9.73692 20.753L9.71892 20.743C9.52555 20.6245 9.3037 20.5606 9.07692 20.558C8.85592 20.558 8.65192 20.619 8.43592 20.742L8.41692 20.753L8.39892 20.764C8.25792 20.848 8.13292 20.942 7.90692 21.13L7.74892 21.262C7.58691 21.4026 7.41624 21.5328 7.23792 21.652L7.21592 21.666L7.19392 21.68L7.10392 21.734C6.80613 21.9118 6.46472 22.0032 6.11792 21.998C5.37192 21.908 4.79892 21.618 4.22792 21.132L4.19292 21.102C4.14592 21.061 4.07492 20.996 4.00092 20.928L3.80492 20.747L3.69792 20.647L3.68692 20.637C3.58709 20.5376 3.47402 20.4525 3.35092 20.384C3.32106 20.369 3.28898 20.3589 3.25592 20.354H3.25092C3.13192 20.376 3.01292 20.413 2.88992 20.464C2.86768 20.4883 2.84168 20.5089 2.81292 20.525L2.80492 20.53C2.76582 20.5502 2.72286 20.5618 2.67892 20.564C2.40713 20.7151 2.14825 20.8884 1.90492 21.082L1.48892 21.406L1.43392 21.449C1.32835 21.531 1.2203 21.6097 1.10992 21.685C0.804918 21.892 0.557918 22 0.309918 22C0.232072 21.9951 0.158925 21.9611 0.105064 21.9047C0.0512039 21.8482 0.0205897 21.7736 0.0193277 21.6956C0.0180658 21.6176 0.0462489 21.542 0.0982558 21.4839C0.150263 21.4258 0.222271 21.3894 0.299918 21.382H0.309918C0.399918 21.382 0.544918 21.32 0.747918 21.184L0.787918 21.157C0.864918 21.103 0.950918 21.04 1.05792 20.958L1.44292 20.657L1.50292 20.61C1.77092 20.404 2.00892 20.237 2.23292 20.105L1.59992 18.895C1.57619 18.8494 1.56421 18.7986 1.56506 18.7472C1.56591 18.6958 1.57956 18.6455 1.60478 18.6007C1.63 18.5559 1.66599 18.5181 1.70949 18.4908C1.75299 18.4634 1.80263 18.4473 1.85392 18.444L22.1409 17.139C22.2049 17.1348 22.2685 17.1506 22.3231 17.1842C22.3777 17.2178 22.4205 17.2676 22.4455 17.3266C22.4706 17.3856 22.4766 17.4509 22.4629 17.5135C22.4492 17.5761 22.4163 17.6329 22.3689 17.676ZM21.2509 17.816L2.36892 19.03L2.79192 19.839C2.91992 19.794 3.04792 19.761 3.17992 19.739C3.19708 19.7359 3.21448 19.7342 3.23192 19.734C3.36392 19.734 3.49192 19.766 3.61792 19.827C3.77092 19.9 3.91192 20.006 4.10092 20.177L4.11692 20.192L4.20892 20.278L4.35292 20.412L4.44992 20.501C4.51492 20.561 4.57492 20.615 4.60992 20.645C5.09492 21.063 5.55792 21.303 6.16392 21.381H6.17492C6.38625 21.3753 6.59268 21.3161 6.77492 21.209L6.79592 21.198L6.81492 21.187L6.83292 21.176C6.97392 21.092 7.09892 20.998 7.32492 20.81L7.50292 20.662C7.78192 20.43 7.92892 20.32 8.12792 20.206C8.43292 20.032 8.73992 19.94 9.07792 19.94C9.41392 19.94 9.72192 20.032 10.0259 20.206L10.0489 20.22C10.2369 20.329 10.3839 20.439 10.6519 20.662L10.8289 20.81C11.0509 20.994 11.1749 21.088 11.3129 21.17L11.3399 21.187L11.3589 21.197C11.5739 21.321 11.7789 21.382 11.9999 21.382C12.2219 21.382 12.4259 21.321 12.6409 21.198L12.6599 21.187L12.6779 21.176C12.8189 21.092 12.9449 20.998 13.1709 20.81L13.3479 20.662C13.6279 20.43 13.7749 20.32 13.9739 20.206C14.2779 20.032 14.5859 19.94 14.9229 19.94C15.2599 19.94 15.5669 20.032 15.8719 20.206L15.8969 20.221C16.0839 20.33 16.2309 20.441 16.4999 20.664C18.3669 19.786 19.9479 18.853 21.2299 17.832L21.2509 17.816ZM3.65292 2.02599C6.07292 3.05999 8.68992 4.94099 10.7999 7.25799C13.2599 9.95799 14.9089 13.086 15.4369 16.407C15.4452 16.461 15.4391 16.5162 15.4191 16.567C15.3992 16.6178 15.3662 16.6625 15.3235 16.6965C15.2808 16.7305 15.2298 16.7526 15.1758 16.7606C15.1218 16.7686 15.0667 16.7622 15.0159 16.742C12.6679 15.797 10.4759 15.484 8.42592 15.722C6.68692 15.922 5.08892 16.514 3.60992 17.425C3.31592 17.607 2.98992 17.243 3.20492 16.971C5.06092 14.616 5.78592 11.981 5.54792 9.17699C5.35292 6.88499 4.51692 4.56699 3.26392 2.46799C3.23112 2.41181 3.21683 2.34674 3.22307 2.28199C3.2293 2.21724 3.25575 2.15609 3.29867 2.1072C3.34158 2.05831 3.39879 2.02416 3.46219 2.00959C3.52559 1.99502 3.59196 2.00075 3.65192 2.02599H3.65292ZM10.0399 4.44999C11.8179 4.99299 13.9319 6.55199 15.8219 8.69299C17.8059 10.941 19.3739 13.627 20.1689 16.275C20.1851 16.3298 20.1858 16.3881 20.171 16.4433C20.1562 16.4985 20.1264 16.5485 20.0849 16.5879C20.0434 16.6272 19.9918 16.6543 19.9359 16.6661C19.8799 16.678 19.8218 16.6741 19.7679 16.655L19.7459 16.645L19.3599 16.491C19.2635 16.4522 19.1665 16.4149 19.0689 16.379L19.0529 16.373C18.3729 16.126 17.8539 16.082 17.1089 16.272C17.0303 16.2919 16.947 16.2803 16.8769 16.2395C16.8068 16.1988 16.7555 16.1322 16.7339 16.054C15.3779 11.123 13.0729 7.27599 9.77492 4.99999C9.48392 4.79899 9.70292 4.34699 10.0409 4.44999H10.0399ZM4.27292 2.99599L4.28092 3.01099C5.30892 4.95099 5.98892 7.04199 6.16592 9.12399C6.37892 11.637 5.85592 14.03 4.49292 16.216L4.47292 16.247L4.47592 16.246C5.67392 15.665 6.94592 15.277 8.30092 15.114L8.35592 15.108C10.3369 14.878 12.4389 15.137 14.6649 15.945L14.7309 15.97L14.7239 15.931C14.1309 12.981 12.6159 10.194 10.4139 7.75199L10.3439 7.67399C8.55892 5.71399 6.39992 4.07399 4.32992 3.02399L4.27292 2.99599ZM12.1929 6.23399L12.2409 6.28199C14.4779 8.57699 16.1259 11.713 17.2149 15.473L17.2529 15.605L17.2749 15.601C17.9849 15.468 18.5589 15.538 19.2379 15.781L19.2649 15.791L19.3309 15.815L19.3769 15.833L19.3519 15.76C18.5409 13.453 17.1439 11.14 15.4159 9.16599L15.3579 9.10099C14.3379 7.94599 13.2549 6.96899 12.2079 6.24499L12.1929 6.23399Z" fill="black"/>
</g>
<defs>
<clipPath id="clip0_751_14592">
<rect width="24" height="24" fill="white"/>
</clipPath>
</defs>
</svg>
