<svg width="24" height="24" viewBox="0 0 24 24" fill="none" xmlns="http://www.w3.org/2000/svg">
<path d="M13.74 4.22999C12.9 3.22999 12.17 2.22999 12.03 2.00999H12C11.86 2.21999 11.13 3.22999 10.29 4.22999C3.08998 13.42 11.43 19.62 11.43 19.62L11.5 19.67C11.56 20.62 11.72 22 11.72 22H12.34C12.34 22 12.49 20.63 12.55 19.67L12.62 19.61C12.62 19.61 20.94 13.42 13.74 4.22999ZM12 19.48C11.8247 19.336 11.664 19.1753 11.52 19L12 8.99999L12.45 19C12.3151 19.1735 12.1644 19.3342 12 19.48Z" fill="black"/>
</svg>
