<svg width="24" height="24" viewBox="0 0 24 24" fill="none" xmlns="http://www.w3.org/2000/svg">
<path fill-rule="evenodd" clip-rule="evenodd" d="M14.625 4.499C14.999 4.373 15.249 4.373 15.249 4.373L14.503 22L3.25195 19.875C3.25195 19.875 4.74995 8.5 4.74995 8.125C4.74995 7.627 4.74995 7.627 5.37395 7.376C5.42795 7.376 5.57695 7.329 5.80895 7.255C6.24271 7.1141 6.68094 6.98736 7.12295 6.875C7.49995 5.25 8.74995 2 11.374 2C11.751 2 12.124 2.123 12.374 2.624H12.5C13.625 2.624 14.25 3.499 14.625 4.499ZM11.083 5.636C11.521 5.502 11.974 5.364 12.375 5.123C12.375 4.373 12.249 3.872 12.124 3.371C11.5 3.621 10.751 4.371 10.374 5.872C10.6069 5.78355 10.8435 5.70482 11.083 5.636ZM11.625 2.875C11.5 2.749 11.375 2.749 11.249 2.749C9.49695 2.749 8.37495 5.123 7.99895 6.627C8.24895 6.564 8.49895 6.47 8.74895 6.376C8.99895 6.282 9.24895 6.188 9.49995 6.126C9.87595 4.126 10.876 3.251 11.625 2.875ZM10.249 10.997C10.999 10.997 11.748 11.373 11.748 11.373L12.247 9.125C12.247 9.125 11.748 8.875 10.748 8.875C7.99795 8.875 6.74795 10.624 6.74795 12.499C6.74795 13.759 7.45595 14.313 8.07795 14.799C8.56495 15.179 8.99795 15.519 8.99795 16.123C8.99795 16.371 8.87295 16.872 8.24895 16.872C7.37495 16.872 6.37495 15.997 6.37495 15.997L5.87295 17.747C5.87295 17.747 6.87295 18.997 8.87295 18.997C10.497 18.997 11.748 17.747 11.748 15.872C11.748 14.342 10.717 13.607 9.91795 13.039C9.41095 12.679 8.99795 12.385 8.99795 11.997C8.99795 11.747 8.99795 10.997 10.249 10.997ZM12.748 3.371C12.873 3.747 12.998 4.248 12.998 4.872V4.997C13.187 4.997 13.343 4.966 13.498 4.935C13.655 4.903 13.811 4.872 13.998 4.872C13.748 4.12 13.372 3.371 12.748 3.371ZM18.372 5.747C18.497 5.747 18.622 5.747 18.622 5.872C18.622 5.935 19.16 9.662 19.694 13.37C20.222 17.038 20.748 20.686 20.748 20.747L14.748 21.997L15.498 4.499H15.623L16.748 5.621C16.748 5.621 18.247 5.747 18.372 5.747Z" fill="black"/>
</svg>
